<svg id="Layer_1" data-name="Layer 1" xmlns="http://www.w3.org/2000/svg" viewBox="0 0 129.58 129.57"><defs><style>.cls-1{fill:#fff;}</style></defs><title>linkedin</title><path class="cls-1" d="M120,0H9.56A9.46,9.46,0,0,0,0,9.34V120.22a9.46,9.46,0,0,0,9.56,9.35H120a9.48,9.48,0,0,0,9.6-9.35V9.34A9.48,9.48,0,0,0,120,0ZM38.43,110.41H19.21V48.58H38.43ZM28.82,40.12A11.14,11.14,0,1,1,40,29,11.14,11.14,0,0,1,28.82,40.12Zm81.59,70.29H91.21V80.34c0-7.17-.13-16.39-10-16.39S69.69,71.76,69.69,79.82v30.59H50.48V48.58H68.92V57h.26C71.74,52.17,78,47,87.36,47c19.46,0,23,12.81,23,29.46Z"/></svg>